<svg xmlns="http://www.w3.org/2000/svg"><symbol id="chevronRight" fill-rule="evenodd" viewBox="0 0 7 12"><path fill="currentColor" fill-rule="nonzero" d="M5.569 5.994 0 .726.687 0l6.336 5.994-6.335 6.002L0 11.27z"/></symbol><symbol id="arrowRightRounded" viewBox="0 0 7 12" fill="none"><path d="m1 1 4.8 4.8L1 10.6" stroke="currentColor" stroke-width="2" stroke-linecap="round" stroke-linejoin="round"/></symbol><symbol id="discord" viewBox="0 0 50 40" fill="none"><path d="M42.355 3.29A40.276 40.276 0 0 0 32.04 0a30.692 30.692 0 0 0-1.32 2.785 37.342 37.342 0 0 0-11.433 0A30.15 30.15 0 0 0 17.949 0 40.167 40.167 0 0 0 7.626 3.298C1.096 13.311-.673 23.076.212 32.702c4.33 3.281 8.527 5.275 12.652 6.58a31.993 31.993 0 0 0 2.71-4.53 26.423 26.423 0 0 1-4.268-2.108c.358-.268.708-.55 1.046-.84 8.227 3.907 17.167 3.907 25.296 0 .341.29.691.572 1.046.84a26.385 26.385 0 0 1-4.275 2.112 31.905 31.905 0 0 0 2.71 4.53c4.129-1.305 8.329-3.298 12.659-6.584 1.038-11.16-1.774-20.833-7.433-29.411V3.29Zm-25.66 23.492c-2.47 0-4.496-2.34-4.496-5.19 0-2.85 1.982-5.195 4.495-5.195 2.514 0 4.539 2.34 4.495 5.195.004 2.85-1.982 5.19-4.495 5.19Zm16.611 0c-2.47 0-4.495-2.34-4.495-5.19 0-2.85 1.982-5.195 4.495-5.195s4.538 2.34 4.495 5.195c0 2.85-1.982 5.19-4.495 5.19Z" fill="currentColor"/></symbol><symbol id="github" viewBox="0 0 47 46" fill="none"><path fill-rule="evenodd" clip-rule="evenodd" d="M23.517 0C10.514 0 0 10.541 0 23.584 0 34.01 6.735 42.83 16.079 45.956c1.17.234 1.598-.508 1.598-1.131 0-.547-.038-2.42-.038-4.375-6.542 1.404-7.905-2.813-7.905-2.813-1.05-2.73-2.61-3.435-2.61-3.435-2.141-1.442.155-1.442.155-1.442 2.373.158 3.62 2.42 3.62 2.42 2.104 3.593 5.488 2.577 6.855 1.95.193-1.524.819-2.578 1.478-3.163-5.218-.546-10.706-2.578-10.706-11.634 0-2.577.934-4.686 2.412-6.324-.236-.585-1.05-3.005.236-6.249 0 0 1.983-.623 6.465 2.42a22.556 22.556 0 0 1 5.878-.78c1.983 0 4.01.272 5.878.78 4.477-3.047 6.465-2.42 6.465-2.42 1.285 3.24.467 5.664.236 6.249 1.516 1.638 2.412 3.747 2.412 6.324 0 9.061-5.488 11.05-10.745 11.634.857.743 1.598 2.147 1.598 4.375 0 3.162-.038 5.702-.038 6.483 0 .623.428 1.365 1.598 1.13C40.265 42.833 47 34.01 47 23.585 47.038 10.54 36.486 0 23.522 0h-.005Z" fill="currentColor"/></symbol><symbol id="document" viewBox="0 0 32 39" fill="none"><path d="M21.323 1.83v6.508a2.17 2.17 0 0 0 2.17 2.17H30m-20.607 0h4.338m-4.338 6.507h13.015M9.393 23.522h13.015m4.338-18.438c-.965-.863-1.967-1.888-2.6-2.553a2.23 2.23 0 0 0-1.613-.7H6.14A4.338 4.338 0 0 0 1.8 6.169v26.03a4.338 4.338 0 0 0 4.338 4.338h19.523A4.338 4.338 0 0 0 30 32.2L30 9.202a2.14 2.14 0 0 0-.597-1.487c-.711-.739-1.9-1.954-2.657-2.63Z" stroke="currentColor" stroke-width="3" stroke-linecap="round" stroke-linejoin="round"/></symbol><symbol id="twitter" viewBox="0 0 23 19" fill="none"><path d="M23 2.354a9.497 9.497 0 0 1-2.71.736A4.687 4.687 0 0 0 22.365.506a9.51 9.51 0 0 1-2.997 1.133A4.733 4.733 0 0 0 15.924.164c-3.047 0-5.285 2.814-4.598 5.734a13.442 13.442 0 0 1-9.725-4.88 4.648 4.648 0 0 0 1.46 6.237A4.736 4.736 0 0 1 .925 6.67C.873 8.834 2.44 10.858 4.709 11.31a4.777 4.777 0 0 1-2.131.08 4.716 4.716 0 0 0 4.408 3.242A9.559 9.559 0 0 1 0 16.566a13.459 13.459 0 0 0 7.234 2.098c8.76 0 13.71-7.323 13.411-13.892A9.553 9.553 0 0 0 23 2.354Z" fill="currentColor"/></symbol><symbol id="youtube" viewBox="0 0 25 19" fill="none"><path d="M24.478 3.397a3.134 3.134 0 0 0-2.211-2.21C20.317.663 12.5.663 12.5.663s-7.818 0-9.767.522a3.134 3.134 0 0 0-2.21 2.211C0 5.347 0 9.414 0 9.414s0 4.069.522 6.018a3.134 3.134 0 0 0 2.211 2.21c1.95.523 9.767.523 9.767.523s7.818 0 9.767-.522a3.134 3.134 0 0 0 2.21-2.211C25 13.482 25 9.414 25 9.414s-.002-4.068-.522-6.017Zm-14.48 9.767v-7.5l6.495 3.75-6.495 3.75Z" fill="currentColor"/></symbol><symbol id="playFilled" viewBox="0 0 14 18" fill="none"><path d="M12.284 8.13c1.269.72 1.273 1.624 0 2.437l-9.84 6.75c-1.237.67-2.076.275-2.164-1.177L.238 2.012C.21.675 1.293.297 2.326.938l9.958 7.192Z" fill="currentColor"/></symbol><symbol id="playOutlinedThin" viewBox="0 0 24 25" fill="none"><path d="M5.25 6.286c0-.856.917-1.398 1.667-.986l11.54 6.348a1.125 1.125 0 0 1 0 1.971l-11.54 6.347a1.126 1.126 0 0 1-1.667-.985V6.286Z" stroke="currentColor" stroke-width="1.5" stroke-linecap="round" stroke-linejoin="round"/></symbol><symbol id="playOutlinedThick" viewBox="0 0 24 25" fill="none"><path d="M5.25 5.984c0-.856.917-1.398 1.667-.986l11.54 6.348a1.124 1.124 0 0 1 0 1.971l-11.54 6.347a1.126 1.126 0 0 1-1.667-.985V5.984Z" stroke="currentColor" stroke-width="2" stroke-linecap="round" stroke-linejoin="round"/></symbol><symbol id="previousOutlined" viewBox="0 0 24 24" fill="none"><path d="M21 8.688c0-.864-.933-1.405-1.683-.977l-7.108 4.062a1.124 1.124 0 0 0 0 1.953l7.108 4.062A1.124 1.124 0 0 0 21 16.81V8.688Zm-9.75 0c0-.864-.933-1.405-1.683-.977l-7.108 4.062a1.125 1.125 0 0 0 0 1.953l7.108 4.062a1.125 1.125 0 0 0 1.683-.977V8.688Z" stroke="currentColor" stroke-width="1.5" stroke-linecap="round" stroke-linejoin="round"/></symbol><symbol id="nextOutlined" viewBox="0 0 24 24" fill="none"><path d="M3 8.688c0-.864.933-1.405 1.683-.977l7.108 4.062a1.124 1.124 0 0 1 0 1.953l-7.108 4.062A1.124 1.124 0 0 1 3 16.81V8.688Zm9.75 0c0-.864.933-1.405 1.683-.977l7.108 4.062a1.124 1.124 0 0 1 0 1.953l-7.108 4.062a1.125 1.125 0 0 1-1.683-.977V8.688Z" stroke="currentColor" stroke-width="1.5" stroke-linecap="round" stroke-linejoin="round"/></symbol><symbol id="rocket" viewBox="0 0 22 22" fill="none"><path d="M14.34 13.69a5.897 5.897 0 0 1-1.134 5.058 5.991 5.991 0 0 1-2.092 1.663 6.044 6.044 0 0 1-2.614.593v-4.758m5.84-2.557a14.884 14.884 0 0 0 4.534-5.274 14.743 14.743 0 0 0 1.626-6.74 15.088 15.088 0 0 0-6.799 1.612 14.945 14.945 0 0 0-5.32 4.494m5.959 5.908a14.986 14.986 0 0 1-5.84 2.558m0 0-.311.059a15.024 15.024 0 0 1-2.448-2.427c.019-.103.038-.206.059-.309m2.581-5.789a6.052 6.052 0 0 0-5.104 1.124A5.956 5.956 0 0 0 1.6 10.98 5.904 5.904 0 0 0 1 13.57h4.8m2.581-5.789a14.734 14.734 0 0 0-2.581 5.79m-2.239 2.368a4.46 4.46 0 0 0-1.479 1.892 4.417 4.417 0 0 0-.278 2.376 4.53 4.53 0 0 0 2.398-.276 4.488 4.488 0 0 0 1.908-1.466m9.14-10.099c0 .395-.158.773-.44 1.052a1.507 1.507 0 0 1-2.12 0 1.48 1.48 0 0 1 0-2.103 1.507 1.507 0 0 1 2.12 0c.282.279.44.657.44 1.051Z" stroke="currentColor" stroke-width="1.7" stroke-linecap="round" stroke-linejoin="round"/></symbol><symbol id="monitor" viewBox="0 0 20 21" fill="none"><path d="M7 15.818v.998a2.95 2.95 0 0 1-.879 2.104l-.621.615h9l-.621-.616A2.972 2.972 0 0 1 13 16.816v-.998m6-11.895v9.665a2.22 2.22 0 0 1-.659 1.577 2.26 2.26 0 0 1-1.591.653H3.25a2.26 2.26 0 0 1-1.591-.653A2.22 2.22 0 0 1 1 13.588V3.923m18 0a2.22 2.22 0 0 0-.659-1.577 2.26 2.26 0 0 0-1.591-.653H3.25a2.26 2.26 0 0 0-1.591.653A2.22 2.22 0 0 0 1 3.923m18 0v6.691a2.22 2.22 0 0 1-.659 1.577 2.26 2.26 0 0 1-1.591.653H3.25a2.26 2.26 0 0 1-1.591-.653A2.22 2.22 0 0 1 1 10.614v-6.69" stroke="currentColor" stroke-width="1.7" stroke-linecap="round" stroke-linejoin="round"/></symbol><symbol id="lightning" viewBox="0 0 19 22" fill="none"><path d="M1 12.11 11.5.958 9.25 9.136h8.25L7 20.287l2.25-8.177H1Z" stroke="currentColor" stroke-width="1.7" stroke-linecap="round" stroke-linejoin="round"/></symbol><symbol id="truck" viewBox="0 0 32 32" fill="none"><path d="M11 25a2 2 0 0 1-4 0m4 0a2 2 0 0 0-4 0m4 0h8M7 25H4.5A1.5 1.5 0 0 1 3 23.5V19m16 6h3m-3 0v-6M3 19V8.82a1.475 1.475 0 0 1 1.316-1.475 64.74 64.74 0 0 1 13.368 0A1.473 1.473 0 0 1 19 8.82v1.277M3 19h16m7 6a2 2 0 0 1-4 0m4 0a2 2 0 0 0-4 0m4 0h1.5c.828 0 1.505-.672 1.453-1.499a23.87 23.87 0 0 0-4.284-12.257 2.743 2.743 0 0 0-2.106-1.147H19m0 0V19" stroke="currentColor" stroke-width="2" stroke-linecap="round" stroke-linejoin="round"/></symbol><symbol id="walletFilled" fill-rule="evenodd" viewBox="0 0 24 24"><path fill="currentColor" fill-rule="nonzero" d="M22.005 6h-7a6 6 0 0 0 0 12h7v2a1 1 0 0 1-1 1h-18a1 1 0 0 1-1-1V4a1 1 0 0 1 1-1h18a1 1 0 0 1 1 1v2Zm-7 2h8v8h-8a4 4 0 1 1 0-8Zm0 3v2h3v-2h-3Z"/></symbol><symbol id="closeFilled" fill-rule="evenodd" viewBox="0 0 24 24"><path d="m12 10.586 4.95-4.95 1.415 1.415-4.95 4.95 4.95 4.95-1.415 1.414-4.95-4.95-4.95 4.95-1.413-1.415 4.95-4.95-4.95-4.95L7.05 5.638l4.95 4.95Z"/></symbol><symbol id="close" viewBox="0 0 24 24"><path d="m12 10.586 4.95-4.95 1.415 1.415-4.95 4.95 4.95 4.95-1.415 1.414-4.95-4.95-4.95 4.95-1.413-1.415 4.95-4.95-4.95-4.95L7.05 5.638l4.95 4.95Z"/></symbol><symbol id="verticalMore" fill-rule="evenodd" viewBox="0 0 24 24"><path fill="currentColor" fill-rule="nonzero" d="M12 3c-1.1 0-2 .9-2 2s.9 2 2 2 2-.9 2-2-.9-2-2-2Zm0 14c-1.1 0-2 .9-2 2s.9 2 2 2 2-.9 2-2-.9-2-2-2Zm0-7c-1.1 0-2 .9-2 2s.9 2 2 2 2-.9 2-2-.9-2-2-2Z"/></symbol><symbol id="chromeBrowser" fill-rule="evenodd" viewBox="0 0 24 24"><path fill="none" d="M0 0h24v24H0z"/><path d="M9.827 21.763C5.35 20.771 2 16.777 2 12c0-1.822.487-3.53 1.339-5.002l4.283 7.419a4.999 4.999 0 0 0 4.976 2.548l-2.77 4.798zM12 22l4.287-7.425A4.977 4.977 0 0 0 17 12a4.978 4.978 0 0 0-1-3h5.542A9.98 9.98 0 0 1 22 12c0 5.523-4.477 10-10 10zm2.572-8.455a2.999 2.999 0 0 1-5.17-.045l-.029-.05a3 3 0 1 1 5.225.05l-.026.045zm-9.94-8.306A9.974 9.974 0 0 1 12 2a9.996 9.996 0 0 1 8.662 5H12a5.001 5.001 0 0 0-4.599 3.035L4.632 5.239z"/></symbol><symbol id="copy" stroke="currentColor" fill="none" stroke-width="2" stroke-linecap="round" stroke-linejoin="round" viewBox="0 0 24 24"><rect x="9" y="9" width="13" height="13" rx="2" ry="2"/><path d="M5 15H4a2 2 0 0 1-2-2V4a2 2 0 0 1 2-2h9a2 2 0 0 1 2 2v1"/></symbol><symbol id="checkboxCircle" viewBox="0 0 24 24"><path fill="currentColor" d="M12 22C6.477 22 2 17.523 2 12S6.477 2 12 2s10 4.477 10 10-4.477 10-10 10Zm-.997-6 7.07-7.071-1.413-1.414-5.657 5.657-2.829-2.829-1.414 1.414L11.003 16Z"/></symbol><symbol id="arrowDownS" viewBox="0 0 24 24"><path fill="currentColor" d="m12 13.171 4.95-4.95 1.414 1.415L12 16 5.636 9.636 7.05 8.222l4.95 4.95Z"/></symbol><symbol id="arrowUpS" viewBox="0 0 24 24"><path d="m12 10.828-4.95 4.95-1.414-1.414L12 8l6.364 6.364-1.415 1.414-4.95-4.95Z"/></symbol><symbol id="add" viewBox="0 0 24 24"><path fill="currentColor" d="M11 11V5h2v6h6v2h-6v6h-2v-6H5v-2h6Z"/></symbol><symbol id="subtract" viewBox="0 0 24 24"><path fill="currentColor" d="M5 11v2h14v-2H5Z"/></symbol><symbol id="mobileWallet" viewBox="0 0 385 236"><g clip-path="url(#mobileWallet__path)"><path d="M78.65 46c62.65-61.31 164.22-61.31 226.87 0l7.54 7.38a7.74 7.74 0 0 1 2.349 5.55 7.722 7.722 0 0 1-2.349 5.55l-25.79 25.25a4.08 4.08 0 0 1-5.67 0l-10.38-10.16c-43.7-42.77-114.57-42.77-158.27 0l-11.11 10.88a4.089 4.089 0 0 1-5.68 0L70.37 65.2a7.727 7.727 0 0 1 0-11.1l8.28-8.1Zm280.21 52.21 23 22.46a7.755 7.755 0 0 1 1.735 8.57 7.755 7.755 0 0 1-1.735 2.54L278.31 233.06a8.152 8.152 0 0 1-11.34 0l-73.47-71.9a2.005 2.005 0 0 0-2.181-.434 2.005 2.005 0 0 0-.649.434l-73.46 71.9a8.16 8.16 0 0 1-11.35 0L2.35 131.75a7.73 7.73 0 0 1 0-11.1l23-22.46a8.13 8.13 0 0 1 11.34 0l73.47 71.89a1.989 1.989 0 0 0 1.415.587 1.995 1.995 0 0 0 1.415-.587l73.46-71.89a8.142 8.142 0 0 1 11.35 0l73.46 71.89a1.998 1.998 0 0 0 2.84 0l73.46-71.89a8.13 8.13 0 0 1 11.34 0l-.04.02Z" fill="#3396FF"/></g><defs><clipPath id="mobileWallet__path"><path fill="#fff" d="M0 0h384.17v235.35H0z"/></clipPath></defs></symbol><symbol id="mobileWalletCircle" viewBox="0 0 400 400"><clipPath id="mobileWalletCircle__path"><path d="M0 0h400v400H0z"/></clipPath><g clip-path="url(#mobileWalletCircle__path)"><circle cx="200" cy="200" fill="#3396ff" r="199.5" stroke="#66b1ff"/><path d="M122.519 148.965c42.791-41.729 112.171-41.729 154.962 0l5.15 5.022a5.248 5.248 0 0 1 0 7.555l-17.617 17.18a2.79 2.79 0 0 1-3.874 0l-7.087-6.911c-29.853-29.111-78.253-29.111-108.106 0l-7.59 7.401a2.79 2.79 0 0 1-3.874 0l-17.617-17.18a5.248 5.248 0 0 1 0-7.555zm191.397 35.529 15.679 15.29a5.248 5.248 0 0 1 0 7.555l-70.7 68.944c-2.139 2.087-5.608 2.087-7.748 0l-50.178-48.931a1.394 1.394 0 0 0-1.937 0l-50.178 48.931c-2.139 2.087-5.608 2.087-7.748 0l-70.701-68.945a5.249 5.249 0 0 1 0-7.555l15.679-15.29c2.14-2.086 5.609-2.086 7.748 0l50.179 48.932a1.394 1.394 0 0 0 1.937 0l50.177-48.932c2.139-2.087 5.608-2.087 7.748 0l50.179 48.932a1.394 1.394 0 0 0 1.937 0l50.179-48.931c2.139-2.087 5.608-2.087 7.748 0z" fill="#fff"/></g></symbol><symbol id="restart" viewBox="0 0 24 24"><path d="M18.537 19.567A9.961 9.961 0 0 1 12 22C6.477 22 2 17.523 2 12S6.477 2 12 2s10 4.477 10 10c0 2.136-.67 4.116-1.81 5.74L17 12h3a8 8 0 1 0-2.46 5.772l.997 1.795Z"/></symbol><symbol id="arrowLeftSLine" viewBox="0 0 24 24"><path d="m10.828 12 4.95 4.95-1.414 1.415L8 12l6.364-6.364 1.414 1.414-4.95 4.95Z"/></symbol><symbol id="arrowRightLine" viewBox="0 0 24 24"><path d="m16.172 11-5.364-5.364 1.414-1.414L20 12l-7.778 7.778-1.414-1.414L16.172 13H4v-2h12.172Z"/></symbol><symbol id="timeLine" viewBox="0 0 24 24"><path d="M12 22C6.477 22 2 17.523 2 12S6.477 2 12 2s10 4.477 10 10-4.477 10-10 10Zm0-2a8 8 0 1 0 0-16 8 8 0 0 0 0 16Zm1-8h4v2h-6V7h2v5Z"/></symbol><symbol id="jaggedCheck" viewBox="0 0 24 24"><path fill="currentColor" d="M20.5 10.25c0-1.43-.88-2.67-2.19-3.34.46-1.39.2-2.9-.81-3.91-1.01-1.01-2.52-1.27-3.91-.81C12.93.88 11.68 0 10.25 0S7.58.88 6.92 2.19C5.52 1.73 4.01 1.99 3 3c-1.01 1.01-1.26 2.52-.8 3.91C.89 7.58 0 8.82 0 10.25s.89 2.67 2.2 3.34c-.46 1.39-.21 2.9.8 3.91 1.01 1.01 2.52 1.26 3.91.81.67 1.31 1.91 2.19 3.34 2.19s2.68-.88 3.34-2.19c1.39.45 2.9.2 3.91-.81 1.01-1.01 1.27-2.52.81-3.91 1.31-.67 2.19-1.91 2.19-3.34Zm-11.71 4.2-3.74-3.74 1.41-1.42 2.26 2.26 4.8-5.23 1.47 1.36-6.2 6.77Z"/></symbol><symbol id="priceTagLine" viewBox="0 0 24 24"><path d="m10.904 2.1 9.9 1.414 1.414 9.9-9.193 9.192a1 1 0 0 1-1.414 0l-9.9-9.9a1 1 0 0 1 0-1.413L10.905 2.1Zm.707 2.121L3.833 12l8.485 8.485 7.779-7.778-1.061-7.425-7.425-1.06Zm2.122 6.364a2 2 0 1 1 2.828-2.828 2 2 0 0 1-2.828 2.828Z"/></symbol><symbol id="sendLine" viewBox="0 0 24 24"><path d="m21.726 2.957-5.453 19.086c-.15.529-.475.553-.717.07L11 13 1.923 9.37c-.51-.205-.504-.51.034-.689L21.043 2.32c.528-.176.832.12.683.638Zm-2.69 2.14L6.811 9.17l5.637 2.255 3.04 6.081 3.546-12.41Z"/></symbol><symbol id="fireLine" viewBox="0 0 24 24"><path d="M12 23a7.5 7.5 0 0 0 7.5-7.5c0-.866-.23-1.697-.5-2.47-1.667 1.647-2.933 2.47-3.8 2.47 3.995-7 1.8-10-4.2-14 .5 5-2.796 7.274-4.138 8.537A7.5 7.5 0 0 0 12 23Zm.71-17.765c3.241 2.75 3.257 4.887.753 9.274-.761 1.333.202 2.991 1.737 2.991.688 0 1.384-.2 2.119-.595a5.5 5.5 0 1 1-9.087-5.412c.126-.118.765-.685.793-.71.424-.38.773-.717 1.118-1.086 1.23-1.318 2.114-2.78 2.566-4.462Z"/></symbol><symbol id="uploadLine" viewBox="0 0 24 24"><path d="M4 19h16v-7h2v8a1 1 0 0 1-1 1H3a1 1 0 0 1-1-1v-8h2v7Zm9-10v7h-2V9H6l6-6 6 6h-5Z"/></symbol><symbol id="coinsLine" viewBox="0 0 24 24"><path fill="currentColor" d="M14.005 2.003a8 8 0 0 1 3.292 15.293A8 8 0 1 1 6.711 6.71a8.003 8.003 0 0 1 7.294-4.707Zm-4 6a6 6 0 1 0 0 12 6 6 0 0 0 0-12Zm1 1v1h2v2h-4a.5.5 0 0 0-.09.992l.09.008h2a2.5 2.5 0 0 1 0 5v1h-2v-1h-2v-2h4a.5.5 0 0 0 .09-.992l-.09-.008h-2a2.5 2.5 0 0 1 0-5v-1h2Zm3-5A5.985 5.985 0 0 0 9.52 6.016a8 8 0 0 1 8.47 8.471 6 6 0 0 0-3.986-10.484Z"/></symbol><symbol id="shoppingBagLine" viewBox="0 0 24 24"><path d="M7.005 8V6a5 5 0 0 1 10 0v2h3a1 1 0 0 1 1 1v12a1 1 0 0 1-1 1h-16a1 1 0 0 1-1-1V9a1 1 0 0 1 1-1h3Zm0 2h-2v10h14V10h-2v2h-2v-2h-6v2h-2v-2Zm2-2h6V6a3 3 0 0 0-6 0v2Z"/></symbol><symbol id="informationLine" viewBox="0 0 24 24"><path fill="currentColor" d="M12 22C6.477 22 2 17.523 2 12S6.477 2 12 2s10 4.477 10 10-4.477 10-10 10Zm0-2a8 8 0 1 0 0-16 8 8 0 0 0 0 16ZM11 7h2v2h-2V7Zm0 4h2v6h-2v-6Z"/></symbol><symbol id="arrowDownLine" viewBox="0 0 24 24"><path d="m13 16.172 5.364-5.364 1.414 1.414L12 20l-7.778-7.778 1.414-1.414L11 16.172V4h2v12.172Z"/></symbol><symbol id="arrowUpDownLine" viewBox="0 0 24 24"><path d="m11.95 7.95-1.414 1.414L8 6.828 8 20H6V6.828L3.466 9.364 2.05 7.95 7 3l4.95 4.95Zm10 8.1L17 21l-4.95-4.95 1.414-1.414 2.537 2.536L16 4h2v13.172l2.536-2.536 1.414 1.414Z"/></symbol><symbol id="arrowLeftRightLine" viewBox="0 0 24 24"><path d="M16.05 12.05 21 17l-4.95 4.95-1.414-1.415L17.172 18H4v-2h13.172l-2.536-2.535 1.414-1.414Zm-8.1-10 1.414 1.414-2.536 2.535H20v2H6.828l2.536 2.536L7.95 11.95 3 7l4.95-4.95Z"/></symbol><symbol id="settingFill" viewBox="0 0 24 24"><path d="M9.954 2.21a9.99 9.99 0 0 1 4.09-.002A3.993 3.993 0 0 0 16 5.07a3.992 3.992 0 0 0 3.457.261A9.988 9.988 0 0 1 21.5 8.877a3.992 3.992 0 0 0-1.5 3.122c0 1.264.586 2.391 1.501 3.124a10.042 10.042 0 0 1-2.045 3.543 3.992 3.992 0 0 0-3.456.261 3.993 3.993 0 0 0-1.955 2.86 9.99 9.99 0 0 1-4.09.004A3.993 3.993 0 0 0 8 18.927a3.992 3.992 0 0 0-3.457-.26A9.99 9.99 0 0 1 2.5 15.121 3.992 3.992 0 0 0 4 11.999c0-1.264-.587-2.39-1.502-3.124a10.043 10.043 0 0 1 2.045-3.542A3.993 3.993 0 0 0 8 5.07a3.993 3.993 0 0 0 1.954-2.86ZM12 15a3 3 0 1 0 0-6 3 3 0 0 0 0 6Z"/></symbol><symbol id="moonLine" viewBox="0 0 24 24"><path d="M10 7a7 7 0 0 0 12 4.9v.1c0 5.523-4.477 10-10 10S2 17.523 2 12 6.477 2 12 2h.1A6.98 6.98 0 0 0 10 7Zm-6 5a8 8 0 0 0 15.062 3.762A9 9 0 0 1 8.238 4.938 7.999 7.999 0 0 0 4 12Z"/></symbol><symbol id="sunLine" viewBox="0 0 24 24"><path d="M12 18a6 6 0 1 1 0-12 6 6 0 0 1 0 12Zm0-2a4 4 0 1 0 0-8 4 4 0 0 0 0 8ZM11 1h2v3h-2V1Zm0 19h2v3h-2v-3ZM3.515 4.929l1.414-1.414L7.05 5.636 5.636 7.05 3.515 4.93ZM16.95 18.364l1.414-1.414 2.121 2.121-1.414 1.414-2.121-2.121Zm2.121-14.85 1.414 1.415-2.121 2.121-1.414-1.414 2.121-2.121ZM5.636 16.95l1.414 1.414-2.121 2.121-1.414-1.414 2.121-2.121ZM23 11v2h-3v-2h3ZM4 11v2H1v-2h3Z"/></symbol><symbol id="arrowDropDown" viewBox="0 0 24 24"><path d="m12 13.171 4.95-4.95 1.414 1.415L12 16 5.636 9.636 7.05 8.222l4.95 4.95Z"/></symbol><symbol id="loaderLine" viewBox="0 0 24 24"><path d="M18.364 5.636 16.95 7.05A7 7 0 1 0 19 12h2a9 9 0 1 1-2.636-6.364Z"/></symbol><symbol id="lock" viewBox="0 0 24 24"><path fill="currentColor" d="M19 10h1a1 1 0 0 1 1 1v10a1 1 0 0 1-1 1H4a1 1 0 0 1-1-1V11a1 1 0 0 1 1-1h1V9a7 7 0 0 1 14 0v1Zm-2 0V9A5 5 0 0 0 7 9v1h10Zm-6 4v4h2v-4h-2Z"/></symbol><symbol id="bardFill" viewBox="0 0 24 24"><path d="m10.614 17.796.878-2.01a7.742 7.742 0 0 1 3.94-3.992l2.416-1.072c.768-.341.768-1.458 0-1.8l-2.34-1.038a7.747 7.747 0 0 1-3.997-4.125l-.89-2.142a.946.946 0 0 0-1.758 0l-.889 2.142a7.747 7.747 0 0 1-3.997 4.125l-2.34 1.039c-.768.34-.768 1.458 0 1.799l2.415 1.072a7.742 7.742 0 0 1 3.94 3.991l.878 2.01a.946.946 0 0 0 1.744 0Zm8.787 4.894.247-.566a4.365 4.365 0 0 1 2.221-2.25l.76-.339a.53.53 0 0 0 0-.963l-.717-.319a4.368 4.368 0 0 1-2.253-2.326l-.254-.611a.507.507 0 0 0-.942 0l-.254.61a4.368 4.368 0 0 1-2.253 2.327l-.718.32a.53.53 0 0 0 0 .962l.76.338a4.365 4.365 0 0 1 2.222 2.251l.247.566c.18.414.754.414.934 0Z"/></symbol><symbol id="link" viewBox="0 0 24 24"><g fill="currentColor"><path d="M10.458 18.374 7.721 21.11a2.853 2.853 0 0 1-3.942 0l-.892-.891a2.787 2.787 0 0 1 0-3.941l5.8-5.8a2.789 2.789 0 0 1 3.942 0l.893.892a1 1 0 0 0 1.418-1.418l-.893-.892a4.791 4.791 0 0 0-6.771 0l-5.8 5.8a4.787 4.787 0 0 0 0 6.77l.892.891a4.785 4.785 0 0 0 6.771 0l2.736-2.735a1 1 0 1 0-1.414-1.415Z"/><path d="m22.526 2.363-.892-.892a4.8 4.8 0 0 0-6.77 0l-2.905 2.9a1 1 0 0 0 1.414 1.414l2.9-2.9a2.79 2.79 0 0 1 3.941 0l.893.893a2.786 2.786 0 0 1 0 3.942l-5.8 5.8a2.769 2.769 0 0 1-1.971.817 2.766 2.766 0 0 1-1.969-.816 1 1 0 1 0-1.415 1.412 4.751 4.751 0 0 0 3.384 1.4 4.752 4.752 0 0 0 3.385-1.4l5.8-5.8a4.786 4.786 0 0 0 0-6.771Z"/></g></symbol><symbol id="errorWarningLine" viewBox="0 0 24 24"><path d="M12 22C6.477 22 2 17.523 2 12S6.477 2 12 2s10 4.477 10 10-4.477 10-10 10Zm0-2a8 8 0 1 0 0-16 8 8 0 0 0 0 16Zm-1-5h2v2h-2v-2Zm0-8h2v6h-2V7Z"/></symbol><symbol id="errorWarningFill" viewBox="0 0 24 24"><path d="M12 22C6.477 22 2 17.523 2 12S6.477 2 12 2s10 4.477 10 10-4.477 10-10 10Zm-1-7v2h2v-2h-2Zm0-8v6h2V7h-2Z"/></symbol><symbol id="checkLine" viewBox="0 0 24 24"><path d="m10 15.17 9.193-9.191 1.414 1.414-10.606 10.606-6.364-6.364 1.414-1.414 4.95 4.95Z"/></symbol><symbol id="checkFill" viewBox="0 0 24 24"><path d="m10 15.17 9.193-9.191 1.414 1.414-10.606 10.606-6.364-6.364 1.414-1.414 4.95 4.95Z"/></symbol><symbol id="informationLine" viewBox="0 0 24 24"><path d="M12 22C6.477 22 2 17.523 2 12S6.477 2 12 2s10 4.477 10 10-4.477 10-10 10Zm0-2a8 8 0 1 0 0-16 8 8 0 0 0 0 16ZM11 7h2v2h-2V7Zm0 4h2v6h-2v-6Z"/></symbol><symbol id="informationFill" viewBox="0 0 24 24"><path d="M12 22C6.477 22 2 17.523 2 12S6.477 2 12 2s10 4.477 10 10-4.477 10-10 10Zm-1-11v6h2v-6h-2Zm0-4v2h2V7h-2Z"/></symbol><symbol id="loaderFill" viewBox="0 0 24 24"><path d="M18.364 5.636 16.95 7.05A7 7 0 1 0 19 12h2a9 9 0 1 1-2.636-6.364Z"/></symbol><symbol id="pencilLine" viewBox="0 0 24 24"><path d="m15.728 9.576-1.414-1.414L5 17.476v1.414h1.414l9.314-9.314Zm1.414-1.414 1.414-1.414-1.414-1.414-1.414 1.414 1.414 1.414Zm-9.9 12.728H3v-4.243L16.435 3.212a1 1 0 0 1 1.414 0l2.829 2.829a1 1 0 0 1 0 1.414L7.243 20.89Z"/></symbol><symbol id="astronaut" fill="none" viewBox="0 0 278 255"><path d="M136.844 254.8c70.527 0 127.7-57.039 127.7-127.4S207.371 0 136.844 0 9.144 57.039 9.144 127.4s57.173 127.4 127.7 127.4Z" fill="#030609"/><path d="M85.444 22.2a2.9 2.9 0 1 0 0-5.8 2.9 2.9 0 0 0 0 5.8Zm122.7 19.9a2.9 2.9 0 1 0 0-5.801 2.9 2.9 0 0 0 0 5.8Zm18.5 68.5a2.9 2.9 0 1 0-.002-5.802 2.9 2.9 0 0 0 .002 5.802Zm-15.6 71.5a2.9 2.9 0 1 0-.002-5.802 2.9 2.9 0 0 0 .002 5.802Zm-8.8 36a2.9 2.9 0 1 0-.002-5.802 2.9 2.9 0 0 0 .002 5.802Zm-57.5 12.2a2.9 2.9 0 1 0-.002-5.802 2.9 2.9 0 0 0 .002 5.802Zm-32.9-24.2a2.9 2.9 0 1 0-.002-5.802 2.9 2.9 0 0 0 .002 5.802Zm-97.7-94a2.9 2.9 0 1 0-.001-5.8 2.9 2.9 0 0 0 0 5.8Zm34-62.1a2.9 2.9 0 1 0 0-5.8 2.9 2.9 0 0 0 0 5.8Z" fill="#F6F5F3"/><path d="M235.944 47.1c9.6 11.7 17 25.1 22 39.7-4.5 4.5-10.7 7.4-17.6 7.4-13.4 0-24.2-10.7-24.2-23.8 0-11.6 8.5-21.3 19.8-23.3Z" fill="#BA536A"/><path d="M242.544 92.9c-13 0-23.6-10.6-23.6-23.7 0-10.6 7-19.6 16.7-22.6 9.7 11.9 17.4 25.6 22.4 40.5-4.2 3.6-9.6 5.8-15.5 5.8Z" fill="#FF6B84"/><path d="M144.744 246.7c0 2.8-.6 5.4-1.5 7.9-2.067.133-4.2.2-6.4.2-14.2 0-28-2.4-40.8-6.7 0-.5-.1-1-.1-1.4 0-13.1 10.9-23.8 24.4-23.8 13.5 0 24.4 10.7 24.4 23.8Z" fill="#124899"/><path d="M145.644 249.2c0 1.8-.2 3.567-.6 5.3-2.667.2-5.4.3-8.2.3-13.5 0-26.5-2.1-38.7-6 .2-13.4 10.8-24.3 23.7-24.3 13.1 0 23.8 11.1 23.8 24.7Z" fill="#4CBAB6"/><path d="M205.144 117.7c5.9 6.3 17.1 16.7 27.6 23.5 21.8 13.9 20.8 11.7 26.1 14l-8.8 27.9c-13.334-9.733-24.167-17.033-32.5-21.9-10.2-6.067-21.8-12.033-34.8-17.9l22.4-25.6Z" fill="#D8DEDC"/><path d="M207.344 119.9c.4.467 2.066 2.1 5 4.9-2.667 5.933-5.067 10.333-7.2 13.2-5 6.8-5.3 6.5-10 11.2l-7.9-3.8 20.1-25.5Z" fill="#839091"/><path d="M242.844 196.2c-6.934 1.333-10.367.2-10.3-3.4 0-8.4 5.1-7.8 18.6-10.2l-8.3 13.6Z" fill="#9CA9A8"/><path d="M234.844 190.9c-.267-1.6.466-3.067 2.2-4.4 1.666-1.267 4.933-1.933 9.8-2-4.534 1.4-7.334 2.533-8.4 3.4-1 .867-2.2 1.867-3.6 3Z" fill="#DAE0DF"/><path d="M251.844 156.9c-4.134-6.6-4.734-10.433-1.8-11.5 4.5-1.6 11.2-1 16.1 1 6.2 2.5 11.7 6.9 11.7 10.5 0 3.133-2.6 5.233-7.8 6.3 3.866 4.6 4.866 7.933 3 10-1.8 2.067-5.267 2.8-10.4 2.2 5 5.133 6.333 8.767 4 10.9-2.6 2.3-12.1 1.6-18.1-.9-5.2-2.1-14.2-12.6-11.5-15.8 1.733-2.133 5.5-3.2 11.3-3.2-5.334-3.067-7-5.567-5-7.5 2-1.867 4.833-2.533 8.5-2Z" fill="#030609"/><path d="M252.344 148.9c2.9-1.1 8.3.5 12.3 1.8 3.9 1.2 10.5 5.7 9 8-1 1.6-3.267 2.567-6.8 2.9 4.133 5.933 4.966 9.267 2.5 10-3.7 1-11.8.8-11.3 1.3s11.1 10.2 6.5 12.5c-4.5 2.3-10.9.8-15.7-1.8-5.7-3-10.4-10-8.5-12 .733-.8 4.466-1.7 11.2-2.7-5.334-4-7.8-6.533-7.4-7.6.7-1.7 3-2.6 6.4-2.6h6.5c-5.934-5.533-7.5-8.8-4.7-9.8Z" fill="#9CA9A8"/><path d="M256.544 155.2c-3.134-2.733-4.134-4.333-3-4.8 1.066-.4 2.9-.3 5.5.3-1.6 0-2.6.3-3 .9-.4.6-.234 1.8.5 3.6Zm-7.7 6.2c-.534 1.2-.3 2.367.7 3.5-3.2-1.4-4.434-2.666-3.7-3.8.733-1.133 3.4-1.533 8-1.2-2.8-.2-4.467.3-5 1.5Zm-4.3 12.4c-.467 1.067-.167 2.867.9 5.4-3.334-2.933-4.367-5.133-3.1-6.6 1.266-1.533 3.433-2.133 6.5-1.8-2.467.867-3.9 1.867-4.3 3Z" fill="#DAE0DF"/><path d="M180.844 148.9c1.933 5.933 3.933 13.767 6 23.5 3.7 17.5 2.9 36.9-4.1 39.9-2.8 1.2-5.4 3.6-16.1 0-7.2-2.4-22.134-12.133-44.8-29.2l59-34.2Z" fill="#D8DEDC"/><path d="M182.744 155.2c-3.2 10.933-12.3 19.7-27.3 26.3-7.334 3.267-16.334 5.4-27 6.4l-10.2-7.5 46.5-25.2h18Z" fill="#687476"/><path d="M74.044 99.2c-7.467.867-13.3 1.533-17.5 2-1.934.2-4.767 1.167-8.5 2.9-3.2-4.333-5.434-8.533-6.7-12.6-1.5-4.6-3-15.4.2-21.7 2.2-4.2 14.366-9.067 36.5-14.6l-4 44Z" fill="#D8DEDC"/><path d="m82.544 53.7-3.5 43.9-23.9 3.9c-1-4.333-1.434-7.933-1.3-10.8.8-14.133 2.466-24.1 5-29.9l23.7-7.1Z" fill="#839091"/><path d="m189.144 137.5-6.4 17.7c-12.4 14.067-26.967 23.533-43.7 28.4-16.8 4.867-34.934 5.467-54.4 1.8l-68.8-32.5c.733-5.933 2.766-11.667 6.1-17.2 5-8.3 15.9-29.3 28.5-33 8.4-2.533 17.6-3.7 27.6-3.5l111.1 38.3Z" fill="#030609"/><path d="M174.844 148.9c-15.334 26-42.1 37.233-80.3 33.7-16.6-1.6-41.934-12.333-76-32.2 3.666-4.733 5.833-8.467 6.5-11.2 1.1-4 2.4-7.2 6.5-9.5 4.1-2.4 9-6.9 11.7-8.8 4.8-3.5 4.6-9.7 7.2-10.4 4.266-1 12.3-1.933 24.1-2.8l100.3 41.2Z" fill="#D8DEDC"/><path d="M113.844 150.7h63.5c-4.334 6.133-11.3 12.2-20.9 18.2-9.6 6-16.4 9-20.4 9-3.334 0-8.6-2.067-15.8-6.2-9.6-5.533-15.734-10.467-18.4-14.8l12-6.2Z" fill="#687476"/><path d="m79.844 106.3 14.8 30.1-20.1 6.9c-5.8-7.667-9.534-12.967-11.2-15.9-1.667-2.933-4.267-8.867-7.8-17.8l24.3-3.3Z" fill="#839091"/><path d="M142.144 166.5c40.869 0 74-33.937 74-75.8s-33.131-75.8-74-75.8-74 33.937-74 75.8 33.131 75.8 74 75.8Z" fill="#030609"/><path d="M143.444 158.8c37.334 0 67.6-31.027 67.6-69.3 0-38.273-30.266-69.3-67.6-69.3-37.335 0-67.6 31.027-67.6 69.3 0 38.273 30.265 69.3 67.6 69.3Z" fill="#D8DEDC"/><path d="M172.344 29.4c9.066 4.133 15.9 10.033 20.5 17.7-.534 1.933-7.367 4.033-20.5 6.3-4.667.8-8.934 1.4-12.8 1.8.066-5.467-.5-10.667-1.7-15.6-1.867-7.467-3.867-12.034-6-13.7 6.6-.867 13.433.3 20.5 3.5Z" fill="#fff"/><path d="M85.444 50c23.133 6.6 44.366 9.566 63.7 8.9 19.333-.667 37.033-3.634 53.1-8.9 6.533 14.4 10.433 25.266 11.7 32.6 1.266 7.333.3 16.633-2.9 27.9-16.334 16.666-38.9 24.3-67.7 22.9-35.8-1.734-58.633-11.267-68.5-28.6-2.6-15.467-2.7-27.134-.3-35 2.4-7.934 6.033-14.534 10.9-19.8Z" fill="#030609"/><path d="M96.744 75.6c5.7 1.4 15.8-.4 20.1 1.3 4.2 1.8 11.7 12.8 16.3 14.4 4.6 1.5 11.7-5.4 14-5 2.3.3 1.9 4.4 4.9 6.6 1.2.9 3.2 1.9 7.3 3 3.066.866 6.233 1.866 9.5 3-20.334 11.666-40.3 15.533-59.9 11.6-19.6-3.867-30.067-8.267-31.4-13.2-.467-4.667-.3-10.367.5-17.1.666-5.134 1.7-9.567 3.1-13.3 6.666 4.866 11.866 7.766 15.6 8.7Z" fill="#173D3E"/><path d="M77.344 91.7c2.733-.6 5.166-.2 7.3 1.2 3.1 2.1 14.7 9.3 18.7 10.8s24.9-.2 26.8-1.5c1.2-.934 3.1-1.7 5.7-2.3 3.333 2.733 5.933 4 7.8 3.8 2.7-.4 6 1.2 9.9-1.3 4-2.5 6-5.6 8.8-5.6 2.7 0 5.9 1.8 8 2.1 6.5 1.1 8.2-1.5 11-.5 2.8 1 4.2 1.5 8.8 1.3 3.066-.2 9.033-.834 17.9-1.9 1.6 4.466-3.534 11.333-15.4 20.6-6.3 4.9-19.3 12-55 12-5.8 0-27.9-1.1-46-14.5-11.4-8.334-16.167-16.4-14.3-24.2Z" fill="#276A69"/><path d="M122.844 103.5c4.466-.467 8.566-2.434 12.3-5.9l1.7 2.7c.133 2.266-.767 4.266-2.7 6-2.9 2.6-7.3 4.6-12.3 4.2-3.267-.2-7.934-2.334-14-6.4 5.4.133 10.4-.067 15-.6Zm27.8-.9c3.6-.6 6.7-2.7 9.2-5 1.666-1.534 3.9-1.534 6.7 0-1 .733-2 1.433-3 2.1-1.4 1-2.6 1.1-5.2 2.2s-6.6 4.4-13.8 4.4c-3 0-5.134-1.6-6.4-4.8 4.266 1.466 8.4 1.833 12.4 1.1h.1Z" fill="#388688"/><path d="m159.344 60.9 20-2.5c4.2 14.266 4.833 36.333 1.9 66.2-4.067 1.266-7.634 2.3-10.7 3.1-4.6 1.2-8.934 1.866-13 2 2.533-7.667 3.633-19.5 3.3-35.5-.2-11.867-.7-22.967-1.5-33.3Zm40-6c2.4 2.7 7.5 10.9 8.8 20 1.9 14.4 1.3 21.5-.6 27.8-2.134 4-4.634 7.1-7.5 9.3-2.867 2.266-5.434 4.466-7.7 6.6 3.2-5.067 4.466-14.734 3.8-29-.667-15.134-2.534-26.134-5.6-33l8.8-1.7Z" opacity=".4" fill="#fff"/><path d="M74.544 142.9c15.733-15.333 28.166-21.9 37.3-19.7 15.3 3.6 14.9 13.9 11.4 24.4-2.334 6.933-15.2 12.7-38.6 17.3l-10.1-22Z" fill="#030609"/><path d="M78.144 146.2c4-4.667 11.233-8.5 21.7-11.5 15.8-4.5 18.3 4.3 18.4 7.2.2 3-1.4 7.2-6.4 8.8-3.334 1.067-11.567 3.8-24.7 8.2l-9-12.7Z" fill="#9CA9A8"/><path d="m78.144 144.9 4.2-2.3c3.933 4.6 6.6 6.867 8 6.8 4.2-.1 9.3.4 9.5-.5.2-.6.866-2.7 2-6.3-.134 2.8-.134 4.5 0 5.1.2.9 9.1-.2 11.3-1.3 2-1 3.7-2.5 5.1-4.5.2 3.2-.534 5.367-2.2 6.5-3.6 2.6-13.234 6.1-28.9 10.5l-9-14Z" fill="#515C5C"/><path d="M105.144 136.1c1-.3 6.2-.7 7.7 0 1 .467 1.633 1.5 1.9 3.1-.8-.733-1.767-1.433-2.9-2.1-.934-.533-3.167-.867-6.7-1Zm-4.5 7.8-1.5 4.2c-.267.867-2.367 1.067-6.3.6 2.466-.2 4.233-.8 5.3-1.8 1.133-.933 1.966-1.933 2.5-3Z" fill="#DAE0DF"/><path d="M57.844 227.4c-.1 2.8 0 7.5-3.3 9.3-3.2 1.7-31 3.2-36.5-2.8-5.4-6-15.4-25.5-17.2-36.5-1.2-7.3-2-20.5 4-22.2 4-1.2 8.066-.833 12.2 1.1-3.934-5.933-5.9-11.4-5.9-16.4 0-3.6 1.3-9.5 5.9-10.5 3.066-.667 9.333-.167 18.8 1.5-2-7.2-2-12.2 0-15 6-8.5 22.5-7.2 27-6 4.5 1.3 39.8 37 42 46.4 1.4 5.7-2.3 21.4-6.7 24-1.867 1.133-6.1 2.1-12.7 2.9 4.2 8 4.2 13.4 0 16.2-4.267 2.867-13.467 2.867-27.6 0v8Z" fill="#030609"/><path d="M38.844 152.9c-1.2-6.867-.7-11.034 1.5-12.5 3.2-2.3 12-2.7 16.5-2.2s5.1 8 11.5 12.2c11 7.3 24 25.3 25.5 28.8s.3 6 0 8.5-12.5 6.6-16 3.7c-1.4-1.1-7.2-8.4-12-12.2-4.667-3.8-9.1-6.567-13.3-8.3 7 7.8 10.933 12.566 11.8 14.3 1.3 2.6 4.1 10.2 7 12.2 2.9 2 10.1 7.8 11.2 8.6 1.1.9 1.6 8.9 1.1 10.4-1.8 2-15.3-4.6-17.3-5-2-.3-7.2-1.2-11.7-2.5-3.067-.8-10.5-7.8-22.3-21 2.733 8.866 5.333 14.9 7.8 18.1 3.6 4.8 6 12 9.2 12 4.5 0 3.8 9.2 1.7 10.9-2.2 1.8-18.3 1.4-24.7-1.5-4.7-2.1-24.5-46.5-19-48.2 7-2.3 11.8-1 14.2 1.3 1.533 1.533 3.133 3.1 4.8 4.7-6.867-19.067-8.367-28.834-4.5-29.3 4.466-.534 9.4-.934 14.8-1.2l1.5 4.7.5-4.2 3.2 1-3-3.3Z" fill="#9CA9A8"/><path d="M12.244 178.1c-2 2.533-2.367 5.566-1.1 9.1 2 5.2 5.4 15 7.7 18.8 2.3 3.9 9.2 16.4 10.8 18.5 1 1.466 2.4 3.066 4.2 4.8-2.867-.267-5.367-.9-7.5-1.9-4.1-1.8-16.2-25.1-19-38.5-1.3-6.3-1.5-8.9 0-9.7 2.533-1.334 4.166-1.7 4.9-1.1Zm21.6 51.2c4.666-3 7.6-5.134 8.8-6.4a99.173 99.173 0 0 1 5.2-5.4c2.666.266 4.333.9 5 1.9 1 1.5-.4 8.9-1.8 9.5-2.4 1.1-5.1 1.3-6.9 1.4-3.867.133-7.3-.2-10.3-1Zm1.4-33c.9 3 3.7 7.6 6.1 11.6 2.533 4.266 4.233 7.033 5.1 8.3-8.2-7-12.9-12.667-14.1-17-1.2-4.334-1.2-8.1 0-11.3.533.533 1.5 3.333 2.9 8.4Zm47.3 9.7c1.6 2.9 2.3 7.7 1 10.4-.8 1.866-6.534.2-17.2-5 1.6-1.334 3-3.134 4.2-5.4 3.2-5.7 3.2-5.7 3.5-6.6 4.533 2.533 7.366 4.733 8.5 6.6Zm-20-23.4c2.533 3.533 5.033 8.066 7.5 13.6-6.334-4-11-8.534-14-13.6-2.334-4.067-4-8.634-5-13.7 5.733 6.466 9.566 11.033 11.5 13.7Zm12 5.3c3.2-.734 6.433-2.034 9.7-3.9 4.266-2.4 7.266-4.4 9-6 1.8 2.666 2 5.9.6 9.7-1.4 3.5-11.3 7.2-16 3.7-2-1.467-3.1-2.634-3.3-3.5Z" fill="#515C5C"/><path d="M43.344 150.7c-.867-6.6.733-10.367 4.8-11.3 4-.867 8.133.566 12.4 4.3-4.534-1.2-7.9-1.634-10.1-1.3-2.134.333-4.5 3.1-7.1 8.3Zm-17.5 11c-.667 2-.334 7.833 1 17.5-5.2-12.4-6.467-19.4-3.8-21 3.2-1.934 6.8-1.934 10.8 0-4.667.333-7.334 1.5-8 3.5Zm-10.2 20.3c-1.134.533-2 2.5-2.6 5.9-1.667-5.8-1.334-8.7 1-8.7 3.666-.067 6.3 1.533 7.9 4.8-2.134-2.334-4.267-3-6.4-2h.1Z" fill="#DAE0DF"/></symbol><symbol id="stargazePixel" viewBox="0 0 432 432" style="enable-background:new 0 0 432 432;background-color:black"><path fill="#53BDB9" class="st0" d="M414 183V273.7h-8.2v24.8h-8.3V315h-8.3v16.5h-8.3v8.3h-8.3v8.3h-8.3v8.3H356v8.3h-8.3v8.3h-8.2v8.2h-8.3v8.3h-16.5v8.3h-16.5v8.3h-16.5v-8.2h8.3v-8.2h8.3v-8.3h16.5v-8.2h8.3v-8.3h16.5v-8.2h8.2v-8.3h8.2v-8.2h8.2v-16.5h8.2v-8.2h8.2V299h8.3v-16.5h8.2v-33h8.2v-66c3.2-.5 5.9-.5 8.7-.5z"/><path class="st1" fill="#904175" d="M18 232.5v-74.2h8.2v-24.7h8.2v-16.5h8.3v-16.5h8.2v-8.3h8.3v-8.2h8.3v-8.3h8.3v-8.2h8.3v-8.3h8.3v-8.2h8.3v-8.3h16.5v-8.3h16.5v16.6h-16.6v8.3h-8.3v8.3H92.3V76H84v8.3h-8.2v8.2h-8.3V109h-8.3v8.3h-8.3v16.5h-8.3v16.5h-8.2v33h-8.2V232.8c-2.7-.3-5.4-.3-8.2-.3z"/><path class="st2" fill="#B76384" d="M133.5 42.8v-8.3h8.3v-8.2h16.5v-8.2c.3 0 .6-.1.8-.1h40.5v8.2H183v8.3h-33v8.2c-5.6.1-11 .1-16.5.1z"/><path class="st3" fill="#78CAB3" d="M414 183h-16.5v-33h-8.2v-24.8h8.2v8.2h8.3v24.8h8.1c.1.2.1.3.1.5V183z"/><path class="st2" fill="#B76384" d="M18 232.5h8.2V249h8.3v33h8.2v8.2h-8.2v8.3h-8.2v-24.7h-8.2c0-.3-.1-.6-.1-.8v-40.5z"/><path class="st4" fill="#A7D6A8" d="M397.5 125.3h-8.2v8.3H381v-16.5h-8.2v-8.2h-8.3V84.1h8.2v8.2h8.2v8.3h8.3v16.5h8.3v8.2z"/><path class="st5" fill="#DC8D6F" d="M34.5 298.5v-8.3h8.2v8.3H51V315h8.2v8.2h8.2v8.2h-8.2v8.3H51v-8.2h-8.3V315h-8.3c.1-5.5.1-11 .1-16.5z"/><path class="st6" fill="#D8D14B" d="M133.5 397.5h-16.4v-8.2h-16.5V381h-8.3v-16.6h16.5v8.3h8.2v8.2h16.5v16.6zM290.3 26.3h8.2v8.2H315v8.2h16.5v16.6h-16.6V51h-16.5v-8.3h-8.2c.1-5.5.1-10.9.1-16.4z"/><path class="st3" fill="#78CAB3" d="M282 397.5v8.2h-8.2v8.2c-.4 0-.6.1-.9.1h-48.6v-8.2h24.8v-8.3H282z"/><path class="st7" fill="#E2B94E" d="M290.3 26.3v16.4H282v-8.3h-33V18h24.7v8.3h16.6z"/><path class="st8" fill="#BED977" d="M323.2 59.3h8.3V51h8.2v8.2h8.3v8.3h8.2v8.2h8.3v16.6h-8.3V84H348v-8.2h-8.2v-8.3h-16.5c-.1-2.8-.1-5.5-.1-8.2zM133.5 397.5v-8.3H150v8.3h24.7v16.4h-16.5v-8.2h-24.8c.1-2.7.1-5.5.1-8.2z"/><path class="st7" fill="#E2B94E" d="M92.3 364.5v8.3h-8.2v-8.2h-8.3v-8.3h-8.2v-8.2h-8.3v-16.6h8.2v8.3h8.3v8.2H84v8.2h8.3v8.3z"/><path class="st4" fill="#A7D6A8" d="M174.7 414v-16.4h8.3v8.2h41.2v8.2H174.7z"/><path class="st5" fill="#DC8D6F" d="M249 18v8.2h-49.4V18H249z"/><path class="st1" fill="#904175" d="M141.7 26.3v8.2h-8.3v-8.2h8.3z"/><path class="st3" fill="#78CAB3" d="M282 397.5v-8.2h8.3v8.2H282z"/><path class="st6" fill="#D8D14B" d="M257.3 92.2h8.3v82.6h-8.3v8.2h-8.2v16.5h-8.2V216h-8.3v8.3h-8.2v16.5h-8.2v16.5H208v8.2h-8.3v16.6h-8.2v8.2h-8.2v8.3h-16.5v8.2h-24.7v8.3h-16.5v-8.2h8.3v-16.5h8.3v-8.3h8.2v-16.5h8.2v-16.5h8.3v-16.6h8.3v-8.2h8.2v-16.5h8.2v-16.5h8.3V183h8.3v-16.5h8.2V150h8.2v-8.2h8.3v-16.6h8.3v-16.5h8.2v-8.2h8.2c-.3-2.9-.3-5.6-.3-8.3z"/><path class="st7" fill="#E2B94E" d="M257.3 92.2v8.2h-8.2v8.2h-8.2v16.5h-8.3v16.6h-8.3v8.2h-8.2v16.5h-8.2v16.5h-8.3v8.3h-8.3v16.5h-8.2v16.5h-8.2v8.2h-8.3V249h-8.3v16.5h-8.2V282h-8.2v8.3h-8.3v16.5h-8.3v8.2h-33v-8.2h8.1v-16.5h8.3V282h8.2v-16.5h8.3V249h8.2v-16.5h8.2V216h-8.2v-8.3h8.3v-16.6h8.2v-16.5h8.3v-8.3h8.2v-16.5h24.7v-16.4h8.2v-16.5h8.3v-8.3h8.2V92.1h8.2v-8.3h8.2v-8.2h8.2v-8.3h8.2v-8.2h8.3c.4 11.2.4 22.2.4 33.1z"/><path class="st8" fill="#BED977" d="M191.3 290.2V282h8.2v-16.6h8.3v-8.2h8.2v-16.5h8.2v-16.5h8.2v-8.3h8.3v-16.5h8.2v-16.5h8.2v-8.2h8.3v-16.6h8.2v8.2h16.5v8.3h16.5v16.5h-8.3v8.3H290v16.5h-8.2v16.5h-8.3v8.3h-8.3v16.5H257v16.5h-8.3v8.3h-8.3v16.5h-8.2V315H224v-8.2h-8.2v-8.2h-8.3v-8.3c-5.3-.1-10.8-.1-16.2-.1z"/><path class="st4" fill="#A7D6A8" d="M232.5 315v-16.5h8.2V282h8.3v-8.3h8.3v-16.5h8.2v-16.5h8.3v-8.3h8.3v-16.5h8.2v-16.5h8.3v-8.3h8.3v-16.5h8.2v8.2h16.5v8.2h24.8v8.3h-8.3v8.3h-8.2v16.5h-8.3v8.2h-8.2v8.3h-16.5v8.2h-8.2v8.3h-16.5v66H274v16.5h-8.2v8.2h-8.2v-8.3h-8.3v-8.2h-8.2v-8.2h-8.3c-.3-2.6-.3-5.4-.3-8.1z"/><path class="st5" fill="#DC8D6F" d="M174.8 150h-8.2v16.5h-8.2v8.3h-8.3v16.5h-8.2v16.6h-16.5v-8.2h-8.2v-16.5h-8.3v-16.6h8.3v-16.5h8.2v-8.2h49.5c-.1 2.6-.1 5.3-.1 8.1z"/><path class="st2" fill="#B76384" d="M125.3 141.7v8.2h-8.2v16.5h-8.3v8.3h-8.2v-8.2h-8.3v-8.3h-8.2v-16.5h-8.2v-8.2h49.5c-.1 2.8-.1 5.5-.1 8.2z"/><path class="st3" fill="#78CAB3" d="M339.8 224.3v-16.5h8.2v-8.3h24.7v8.3h-8.2v8.2H348v8.3h-8.2zM265.5 348v-8.2h8.2v-16.5h8.2v41.2h-8.2v-8.2h-8.3c.1-2.8.1-5.5.1-8.3zM331.5 232.5v-8.2h8.3v8.2h-8.3z"/></symbol><symbol id="externalLinkLine" viewBox="0 0 24 24"><path d="M10 6v2H5v11h11v-5h2v6a1 1 0 0 1-1 1H4a1 1 0 0 1-1-1V7a1 1 0 0 1 1-1h6Zm11-3v8h-2V6.413l-7.793 7.794-1.414-1.414L17.585 5H13V3h8Z"/></symbol><symbol id="timeLine" viewBox="0 0 24 24"><path d="M12 22C6.477 22 2 17.523 2 12S6.477 2 12 2s10 4.477 10 10-4.477 10-10 10Zm0-2a8 8 0 1 0 0-16 8 8 0 0 0 0 16Zm1-8h4v2h-6V7h2v5Z"/></symbol></svg>